# xmcd CD database file
#
# Track frame offsets:
#	150
#	19921
#	38384
#	60287
#	90665
#	111148
#	128537
#	151012
#	175127
#	193688
#	214756
#	238624
#	256250
#	275157
#	294427
#	316706
#	338164
#
# Disc length: 4779 seconds
#
# Revision: 0
# Processed by: cddbd v1.5.2PL0 Copyright (c) Steve Scherf et al.
# Submitted via: jetAudio 7
#
DISCID=dd12a911
DTITLE=B.B. King - Friends II
DYEAR=1900
DGENRE=Blues
TTITLE0=Riding With The King
TTITLE1=Every Day I Have The Blues
TTITLE2=Early In The Morning
TTITLE3=Story Monday
TTITLE4=Confessin' The Blues
TTITLE5=We're Gonna Make It
TTITLE6=Marry You
TTITLE7=Let The Good Times Roll
TTITLE8=You're The Boss
TTITLE9=Ten Long Years
TTITLE10=Ain't Nobody Home
TTITLE11=Tired of Your Jive
TTITLE12=Cryin' Won't Help You
TTITLE13=Please Send Me Someone
TTITLE14=All Over Again
TTITLE15=I Wanna Be
TTITLE16=When that evening sun goes down lyrics
EXTD=
EXTT0=
EXTT1=
EXTT2=
EXTT3=
EXTT4=
EXTT5=
EXTT6=
EXTT7=
EXTT8=
EXTT9=
EXTT10=
EXTT11=
EXTT12=
EXTT13=
EXTT14=
EXTT15=
EXTT16=
PLAYORDER=
